<!-- Generated by IcoMoon.io -->
<svg version="1.1" xmlns="http://www.w3.org/2000/svg" width="768" height="768" viewBox="0 0 768 768">
<title></title>
<g id="icomoon-ignore">
</g>
<path fill="#000" d="M240 687l43.5-42 121.5 121.5-21 1.5q-150 0-260.25-102t-122.25-250.5h48q7.5 79.5 63 159t127.5 112.5zM474 678l204-204-384-384-204 204zM327 55.5l385.5 385.5q15 13.5 15 33t-15 34.5l-204 204q-13.5 15-33 15t-34.5-15l-385.5-385.5q-13.5-13.5-13.5-33 0-21 13.5-34.5l204-204q13.5-13.5 34.5-13.5 19.5 0 33 13.5zM528 81l-43.5 42-121.5-121.5 21-1.5q150 0 260.25 102t122.25 250.5h-48q-9-90-60-162t-130.5-109.5z"></path>
</svg>
